<?xml version="1.0" encoding="utf-8"?>
<!-- Generator: Adobe Illustrator 21.0.0, SVG Export Plug-In . SVG Version: 6.00 Build 0)  -->
<svg version="1.0" id="Layer_1" xmlns="http://www.w3.org/2000/svg" xmlns:xlink="http://www.w3.org/1999/xlink" x="0px" y="0px"
	 width="359.1px" height="149.8px" viewBox="0 0 359.1 149.8" style="enable-background:new 0 0 359.1 149.8;" xml:space="preserve"
	>
<style type="text/css">
	.st0{fill:#008BFF;}
	.st1{fill:#333E48;}
	.st2{fill-rule:evenodd;clip-rule:evenodd;fill:#333E48;}
</style>
<g>
	<g>
		<path class="st0" d="M54.6,35.5L30.3,30c-4.9-1.1-6.5-2.5-6.5-5c0-1.9,1.5-3.5,6-3.5h44.6V8.4c0-3.7-3-6.7-6.7-6.7h-39
			C9.9,1.7,0,12.6,0,26.6c0,12.4,7.6,19.9,22.8,23.3l24.3,5.4c4.9,1.1,6.5,2.5,6.5,5c0,1.9-1.5,3.5-6,3.5H1.5v13.1
			c0,3.7,3,6.7,6.7,6.7h37.9c22.3,0,31.3-10.9,31.3-23.8C77.4,46.4,69.7,38.9,54.6,35.5"/>
		<path class="st0" d="M243.7,1.3c-3.8,0-6.9,3-6.9,6.7v40c0,8.9-7.6,16-16.8,15.5c-8.4-0.5-14.8-7.8-14.8-16.1V8
			c0-3.7-3.1-6.7-6.9-6.7h-14c0,0-0.1,0-0.1,0.1V47c0,19.6,15.5,36.3,35.4,37c20.9,0.7,38.1-15.7,38.1-36.1V1.3c0,0,0-0.1-0.1-0.1
			H243.7z"/>
		<path class="st0" d="M129.9,64.3c-11.9,0-21.6-9.7-21.6-21.6s9.7-21.6,21.6-21.6c11.9,0,21.6,9.7,21.6,21.6S141.8,64.3,129.9,64.3
			 M129.9,0.2c-23.5,0-42.6,19.1-42.6,42.6s19.1,42.6,42.6,42.6c23.5,0,42.6-19.1,42.6-42.6S153.3,0.2,129.9,0.2"/>
		<path class="st0" d="M333,48.3l-8.1-8.1l-15.2,14.7l8.5,8.5c-1.9,0.5-3.9,0.8-6,0.8c-11.9,0-21.6-9.7-21.6-21.6
			c0-11.9,9.7-21.6,21.6-21.6c11.9,0,21.6,9.7,21.6,21.6C333.8,44.5,333.5,46.4,333,48.3 M348.9,64.1c3.7-6.3,5.9-13.7,5.9-21.6
			c0-23.5-19.1-42.6-42.6-42.6c-23.5,0-42.6,19.1-42.6,42.6c0,23.5,19.1,42.6,42.6,42.6c8,0,15.4-2.2,21.8-6l4.2,4.2
			c2.7,2.7,7.1,2.7,9.8,0l10-10c0,0,0-0.1,0-0.1L348.9,64.1z"/>
	</g>
	<g>
		<g>
			<path class="st1" d="M17.2,134.1h-3.4l-0.3-2.2c-1,0.9-2.1,1.5-3.3,2c-1.2,0.5-2.4,0.7-3.6,0.7c-2,0-3.5-0.6-4.7-1.7
				c-1.2-1.1-1.8-2.6-1.8-4.5c0-2,0.7-3.6,2.2-4.9c1.4-1.2,3.4-1.8,5.8-1.8c1.6,0,3.4,0.2,5.2,0.7v-2.8c0-1.5-0.3-2.6-1-3.2
				c-0.7-0.6-1.8-0.9-3.5-0.9c-2.4,0-4.8,0.4-7.3,1.3V114c1-0.5,2.2-0.9,3.7-1.2c1.4-0.3,2.9-0.4,4.4-0.4c2.6,0,4.6,0.5,5.8,1.6
				c1.3,1.1,1.9,2.8,1.9,5V134.1z M13.2,125.1c-1.4-0.4-2.9-0.5-4.4-0.5c-3.1,0-4.7,1.2-4.7,3.6c0,1.1,0.3,1.9,0.9,2.4
				c0.6,0.6,1.4,0.9,2.5,0.9c1.9,0,3.8-0.7,5.7-2.1V125.1z"/>
			<path class="st1" d="M41.7,134.1h-4.1v-14.1c0-1.5-0.3-2.6-0.9-3.2c-0.6-0.7-1.5-1-2.8-1c-2.2,0-4.3,0.7-6.5,2.1v16.3h-4.1v-21.1
				h3.5l0.4,2.3c2.6-2,5.4-3,8.3-3c2,0,3.6,0.5,4.6,1.6c1.1,1.1,1.6,2.6,1.6,4.6V134.1z"/>
		</g>
		<g>
			<path class="st1" d="M205.2,133.3c-1.6,0.8-3.5,1.2-5.6,1.2c-3.3,0-5.8-0.9-7.5-2.8c-1.7-1.9-2.6-4.6-2.6-8.1
				c0-3.5,0.9-6.3,2.7-8.2c1.8-1.9,4.3-2.9,7.6-2.9c1.9,0,3.6,0.4,5.2,1.2v3c-1.6-0.5-3.1-0.7-4.7-0.7c-2.3,0-4,0.6-5,1.8
				c-1,1.2-1.5,3.1-1.5,5.6v0.5c0,2.5,0.5,4.4,1.6,5.6c1,1.2,2.7,1.8,4.9,1.8c1.5,0,3.1-0.3,4.9-0.8V133.3z"/>
			<path class="st1" d="M225.6,131.7c-1.8,2-4.2,3-7.4,3c-3.2,0-5.6-1-7.4-3c-1.8-2-2.7-4.7-2.7-8.2c0-3.5,0.9-6.2,2.7-8.2
				c1.8-2,4.2-3,7.4-3c3.2,0,5.6,1,7.4,3c1.8,2,2.7,4.7,2.7,8.2C228.3,127,227.4,129.7,225.6,131.7z M218.2,131.3
				c3.9,0,5.9-2.6,5.9-7.9c0-5.2-2-7.8-5.9-7.8c-3.9,0-5.9,2.6-5.9,7.8C212.3,128.7,214.3,131.3,218.2,131.3z"/>
			<path class="st1" d="M264.5,134.1h-4.1v-14.3c0-1.4-0.3-2.4-0.8-3.1c-0.5-0.7-1.4-1-2.5-1c-2,0-4.1,0.6-6.1,1.9
				c0,0.2,0,0.4,0,0.6c0,0.2,0,0.4,0,0.7v15.2h-4.1v-14.3c0-1.4-0.3-2.4-0.8-3.1c-0.5-0.7-1.4-1-2.5-1c-2.1,0-4.1,0.6-6.1,1.8v16.6
				h-4.1v-21.1h3.5l0.4,2.1c2.7-1.8,5.3-2.8,7.8-2.8c2.6,0,4.3,1,5.2,3c2.7-2,5.5-3,8.2-3c1.9,0,3.4,0.5,4.4,1.6
				c1,1.1,1.5,2.6,1.5,4.6V134.1z"/>
			<path class="st1" d="M274.7,142.6h-4.1v-29.7h3.5l0.4,2.2c2.1-1.9,4.5-2.8,7-2.8c2.7,0,4.8,1,6.4,2.9c1.6,2,2.3,4.6,2.3,8
				c0,3.4-0.8,6.2-2.5,8.2c-1.6,2.1-3.8,3.1-6.5,3.1c-2.5,0-4.7-0.8-6.5-2.5V142.6z M274.7,129.2c1.8,1.3,3.6,2,5.5,2
				c3.8,0,5.7-2.6,5.7-7.7c0-2.6-0.5-4.6-1.4-5.9c-0.9-1.3-2.4-1.9-4.3-1.9c-2,0-3.8,0.6-5.6,1.9V129.2z"/>
			<path class="st1" d="M311,134.1h-3.4l-0.3-2.2c-1,0.9-2.1,1.5-3.3,2c-1.2,0.5-2.4,0.7-3.6,0.7c-2,0-3.5-0.6-4.7-1.7
				c-1.2-1.1-1.8-2.6-1.8-4.5c0-2,0.7-3.6,2.2-4.9c1.4-1.2,3.4-1.8,5.8-1.8c1.6,0,3.4,0.2,5.2,0.7v-2.8c0-1.5-0.3-2.6-1-3.2
				c-0.7-0.6-1.8-0.9-3.5-0.9c-2.4,0-4.8,0.4-7.3,1.3V114c1-0.5,2.2-0.9,3.7-1.2c1.4-0.3,2.9-0.4,4.4-0.4c2.6,0,4.6,0.5,5.8,1.6
				c1.3,1.1,1.9,2.8,1.9,5V134.1z M307.1,125.1c-1.4-0.4-2.9-0.5-4.4-0.5c-3.1,0-4.7,1.2-4.7,3.6c0,1.1,0.3,1.9,0.9,2.4
				c0.6,0.6,1.4,0.9,2.5,0.9c1.9,0,3.8-0.7,5.7-2.1V125.1z"/>
			<path class="st1" d="M335.6,134.1h-4.1v-14.1c0-1.5-0.3-2.6-0.9-3.2s-1.5-1-2.8-1c-2.2,0-4.3,0.7-6.5,2.1v16.3h-4.1v-21.1h3.5
				l0.4,2.3c2.6-2,5.4-3,8.3-3c2,0,3.6,0.5,4.6,1.6c1.1,1.1,1.6,2.6,1.6,4.6V134.1z"/>
			<path class="st1" d="M349.5,137.8c-0.7,1.9-1.6,3.3-2.6,4.1c-1,0.8-2.3,1.2-3.9,1.2c-1.2,0-2.2-0.2-3.2-0.6v-3
				c0.7,0.2,1.5,0.3,2.4,0.3c1,0,1.8-0.3,2.4-0.8c0.6-0.5,1.1-1.4,1.6-2.7l0.8-2.1l-8.5-21.3h4.4l6.1,17.3l5.9-17.3h4.2L349.5,137.8
				z"/>
		</g>
		<g>
			<g>
				<path class="st2" d="M130.6,141.6c-7.2,5.3-17.6,8.1-26.6,8.1c-12.6,0-23.9-4.7-32.5-12.4c-0.7-0.6-0.1-1.4,0.7-1
					c9.3,5.4,20.7,8.6,32.5,8.6c8,0,16.7-1.7,24.8-5.1C130.7,139.4,131.8,140.7,130.6,141.6z"/>
				<path class="st2" d="M133.6,138.2c-0.9-1.2-6.1-0.6-8.4-0.3c-0.7,0.1-0.8-0.5-0.2-1c4.1-2.9,10.9-2.1,11.6-1.1
					c0.8,1-0.2,7.7-4.1,11c-0.6,0.5-1.2,0.2-0.9-0.4C132.5,144.2,134.5,139.4,133.6,138.2z"/>
			</g>
			<g>
				<path class="st2" d="M125.4,116.5v-2.8c0-0.4,0.3-0.7,0.7-0.7l12.6,0c0.4,0,0.7,0.3,0.7,0.7v2.4c0,0.4-0.3,0.9-0.9,1.8l-6.5,9.3
					c2.4-0.1,5,0.3,7.2,1.5c0.5,0.3,0.6,0.7,0.7,1.1v3c0,0.4-0.5,0.9-0.9,0.6c-3.9-2-9-2.3-13.3,0c-0.4,0.2-0.9-0.2-0.9-0.7V130
					c0-0.5,0-1.2,0.5-1.9l7.6-10.8l-6.6,0C125.7,117.2,125.4,117,125.4,116.5z"/>
				<path class="st2" d="M79.4,134.1h-3.8c-0.4,0-0.7-0.3-0.7-0.6l0-19.7c0-0.4,0.3-0.7,0.7-0.7l3.6,0c0.4,0,0.7,0.3,0.7,0.7v2.6H80
					c0.9-2.5,2.7-3.6,5-3.6c2.4,0,3.9,1.2,5,3.6c0.9-2.5,3-3.6,5.3-3.6c1.6,0,3.4,0.7,4.4,2.2c1.2,1.7,1,4.1,1,6.2l0,12.4
					c0,0.4-0.3,0.7-0.7,0.7h-3.8c-0.4,0-0.7-0.3-0.7-0.7l0-10.4c0-0.8,0.1-2.9-0.1-3.7c-0.3-1.3-1.1-1.7-2.3-1.7
					c-0.9,0-1.9,0.6-2.3,1.6c-0.4,1-0.4,2.6-0.4,3.8v10.4c0,0.4-0.3,0.7-0.7,0.7h-3.8c-0.4,0-0.7-0.3-0.7-0.7l0-10.4
					c0-2.2,0.4-5.4-2.4-5.4c-2.8,0-2.6,3.1-2.6,5.4l0,10.4C80.2,133.8,79.8,134.1,79.4,134.1z"/>
				<path class="st2" d="M150.2,112.7c5.7,0,8.8,4.9,8.8,11.1c0,6-3.4,10.8-8.8,10.8c-5.6,0-8.6-4.9-8.6-11
					C141.6,117.4,144.7,112.7,150.2,112.7z M150.3,116.7c-2.8,0-3,3.8-3,6.2c0,2.4,0,7.5,3,7.5c3,0,3.1-4.1,3.1-6.7
					c0-1.7-0.1-3.6-0.6-5.2C152.3,117.2,151.5,116.7,150.3,116.7z"/>
				<path class="st2" d="M166.4,134.1h-3.8c-0.4,0-0.7-0.3-0.7-0.7l0-19.7c0-0.4,0.3-0.6,0.7-0.6l3.6,0c0.3,0,0.6,0.2,0.7,0.6v3h0.1
					c1.1-2.7,2.6-4,5.2-4c1.7,0,3.4,0.6,4.5,2.3c1,1.6,1,4.2,1,6.1v12.4c0,0.3-0.4,0.6-0.7,0.6H173c-0.4,0-0.6-0.3-0.7-0.6v-10.7
					c0-2.2,0.3-5.3-2.4-5.3c-0.9,0-1.8,0.6-2.2,1.6c-0.5,1.2-0.6,2.4-0.6,3.7v10.6C167.1,133.8,166.8,134.1,166.4,134.1z"/>
				<path class="st2" d="M122.1,130.5c-0.7-1-1.4-1.8-1.4-3.5v-6c0-2.5,0.2-4.9-1.7-6.6c-1.5-1.4-3.9-1.9-5.8-1.9
					c-3.6,0-7.7,1.4-8.6,5.9c-0.1,0.5,0.3,0.7,0.6,0.8l3.7,0.4c0.3,0,0.6-0.4,0.7-0.7c0.3-1.6,1.6-2.3,3.1-2.3c0.8,0,1.7,0.3,2.2,1
					c0.5,0.8,0.5,1.9,0.5,2.8v0.5c-2.2,0.2-5.1,0.4-7.2,1.3c-2.4,1-4.1,3.2-4.1,6.3c0,4,2.5,6,5.7,6c2.7,0,4.2-0.6,6.3-2.8
					c0.7,1,0.9,1.5,2.2,2.6c0.3,0.2,0.7,0.1,0.9-0.1l0,0c0.8-0.7,2.2-1.9,2.9-2.5C122.4,131.2,122.4,130.8,122.1,130.5z
					 M115.3,124.7c0,1.5,0,2.7-0.7,4.1c-0.6,1.1-1.6,1.7-2.7,1.7c-1.5,0-2.3-1.1-2.3-2.8c0-3.3,2.9-3.9,5.7-3.9V124.7z"/>
				<path class="st2" d="M71.9,130.5c-0.7-1-1.4-1.8-1.4-3.5v-6c0-2.5,0.2-4.9-1.7-6.6c-1.5-1.4-3.9-1.9-5.8-1.9
					c-3.6,0-7.7,1.4-8.6,5.9c-0.1,0.5,0.3,0.7,0.6,0.8l3.7,0.4c0.3,0,0.6-0.4,0.7-0.7c0.3-1.6,1.6-2.3,3.1-2.3c0.8,0,1.7,0.3,2.2,1
					c0.5,0.8,0.5,1.9,0.5,2.8v0.5c-2.2,0.2-5.1,0.4-7.2,1.3c-2.4,1-4.1,3.2-4.1,6.3c0,4,2.5,6,5.7,6c2.7,0,4.2-0.6,6.3-2.8
					c0.7,1,0.9,1.5,2.2,2.6c0.3,0.2,0.7,0.1,0.9-0.1l0,0c0.8-0.7,2.2-1.9,2.9-2.5C72.2,131.2,72.2,130.8,71.9,130.5z M65.1,124.7
					c0,1.5,0,2.7-0.7,4.1c-0.6,1.1-1.6,1.7-2.7,1.7c-1.5,0-2.3-1.1-2.3-2.8c0-3.3,2.9-3.9,5.7-3.9V124.7z"/>
			</g>
		</g>
	</g>
</g>
<g>
</g>
<g>
</g>
<g>
</g>
<g>
</g>
<g>
</g>
<g>
</g>
</svg>
