<?xml version="1.0" encoding="UTF-8" standalone="no"?>
<!-- Created with Inkscape (http://www.inkscape.org/) -->
<svg
   xmlns:svg="http://www.w3.org/2000/svg"
   xmlns="http://www.w3.org/2000/svg"
   version="1.0"
   width="584.64563"
   height="49.251968"
   id="svg1998">
  <defs
     id="defs2000" />
  <g
     id="layer1">
    <g
       transform="matrix(0.566929,0,0,0.566929,329.5782,-452.1237)"
       id="g2009">
      <path
         d="M -91.500248,854.46239 L -91.500248,827.29071 L -49.844039,827.29071 L -49.844039,854.46741 L -91.500248,854.46741 L -91.500248,854.46239 z "
         style="fill:#d61233"
         id="path13" />
      <path
         d="M -133.15144,854.46239 L -133.15144,827.36602 L -91.500248,827.36602 L -91.500248,854.46239 L -133.15144,854.46239 z "
         style="fill:white"
         id="path15" />
      <path
         d="M -462.87054,813.13674 C -480.42267,813.13674 -491.93304,825.90127 -491.93304,840.91799 C -491.93304,855.61841 -480.73456,868.73049 -463.02679,868.73049 C -444.68139,868.73049 -433.71429,855.53808 -433.71429,840.91799 C -433.71429,825.82596 -445.0021,813.13674 -462.87054,813.13674 z M 284.34821,813.13674 C 267.8253,813.13674 255.25448,825.29612 255.25446,841.26174 C 255.25446,857.13698 267.49496,868.73049 284.09821,868.73049 C 291.6392,868.73049 297.4985,867.4398 304.72321,864.26174 L 304.75446,864.26174 L 304.75446,841.32424 L 286.56696,841.32424 L 286.56696,848.29299 L 296.97321,848.29299 L 296.97321,859.41799 C 293.23786,860.61792 289.40425,861.57424 285.19196,861.57424 C 272.33411,861.57424 263.2857,853.08134 263.28571,841.01174 C 263.28571,829.25843 272.43363,820.26174 284.19196,820.26174 C 290.70372,820.26174 297.27333,822.11614 303.62946,825.60549 L 303.62946,817.73049 C 295.1245,814.15579 290.70433,813.13674 284.34821,813.13674 z M -565.71429,813.85549 L -565.71429,820.82424 L -546.96429,820.82424 L -546.96429,868.01174 L -539.18304,868.01174 L -539.18304,820.82424 L -520.43304,820.82424 L -520.43304,813.85549 L -565.71429,813.85549 z M -397.18304,813.85549 L -397.18304,868.01174 L -389.40179,868.01174 L -389.40179,825.82424 L -389.24554,825.82424 L -372.55804,846.79299 L -371.27679,846.79299 L -354.62054,825.82424 L -354.43304,825.82424 L -354.43304,868.01174 L -346.65179,868.01174 L -346.65179,813.85549 L -353.90179,813.85549 L -371.93304,836.07424 L -389.87054,813.85549 L -397.18304,813.85549 z M -302.65179,813.85549 L -302.65179,868.01174 L -294.87054,868.01174 L -294.87054,825.82424 L -294.71429,825.82424 L -278.02679,846.79299 L -276.77679,846.79299 L -260.08929,825.82424 L -259.93304,825.82424 L -259.93304,868.01174 L -252.15179,868.01174 L -252.15179,813.85549 L -259.37054,813.85549 L -277.40179,836.07424 L -295.37054,813.85549 L -302.65179,813.85549 z M -218.40179,813.85549 L -198.30804,839.35549 L -198.30804,868.01174 L -190.52679,868.01174 L -190.52679,839.41799 L -170.43304,813.85549 L -179.80804,813.85549 L -194.49554,832.51174 L -209.02679,813.85549 L -218.40179,813.85549 z M -133.15179,813.85549 L -133.15179,827.32424 L -49.839286,827.32424 L -49.839286,813.85549 L -133.15179,813.85549 z M -5.7455357,813.85549 L -5.7455357,868.01174 L 2.0357143,868.01174 L 2.0357143,844.41799 L 32.379464,844.41799 L 32.379464,868.01174 L 40.160714,868.01174 L 40.160714,813.85549 L 32.379464,813.85549 L 32.379464,837.41799 L 2.0357143,837.41799 L 2.0357143,813.85549 L -5.7455357,813.85549 z M 72.410714,813.85549 L 72.410714,868.01174 L 80.160714,868.01174 L 80.160714,813.85549 L 72.410714,813.85549 z M 112.09821,813.85549 L 112.09821,868.01174 L 144.34821,868.01174 L 144.34821,861.01174 L 119.87946,861.01174 L 119.87946,813.85549 L 112.09821,813.85549 z M 166.69196,813.85549 L 166.69196,868.01174 L 174.47321,868.01174 L 174.47321,842.82424 L 195.62946,842.82424 L 195.62946,835.85549 L 174.47321,835.85549 L 174.47321,820.82424 L 195.62946,820.82424 L 195.62946,813.85549 L 166.69196,813.85549 z M 222.84821,813.85549 L 222.84821,868.01174 L 230.62946,868.01174 L 230.62946,813.85549 L 222.84821,813.85549 z M 334.34821,813.85549 L 334.34821,868.01174 L 365.81696,868.01174 L 365.81696,861.01174 L 342.16071,861.01174 L 342.16071,844.16799 L 364.31696,844.16799 L 364.31696,837.19924 L 342.16071,837.19924 L 342.16071,820.82424 L 365.09821,820.82424 L 365.09821,813.85549 L 334.34821,813.85549 z M 392.41071,813.85549 L 392.41071,868.01174 L 400.22321,868.01174 L 400.22321,844.51174 L 403.47321,844.51174 C 407.44453,844.51174 410.70386,845.76603 417.84821,856.88674 L 424.97321,868.01174 L 434.28571,868.01174 C 430.55036,862.85052 429.18392,861.0183 426.87946,857.29299 C 422.7525,850.53521 419.73721,845.52013 414.81696,842.26174 C 420.62583,839.95727 423.87946,835.28753 423.87946,829.01174 C 423.87946,819.64323 417.0633,813.85549 406.09821,813.85549 L 392.41071,813.85549 z M -462.87054,820.26174 C -450.7206,820.26174 -441.74554,829.00402 -441.74554,840.91799 C -441.74554,852.75162 -450.7206,861.57424 -462.87054,861.57424 C -474.94516,861.57424 -483.90178,852.75664 -483.90179,840.91799 C -483.90179,829.00402 -474.94516,820.26174 -462.87054,820.26174 z M 400.22321,820.51174 L 405.22321,820.51174 C 412.77424,820.51174 415.75783,823.61333 415.84821,828.69924 C 415.92352,833.22785 413.56753,837.51174 405.22321,837.51174 L 400.22321,837.51174 L 400.22321,820.51174 z M -133.15179,854.38674 L -133.15179,867.94924 L -49.839286,867.94924 L -49.839286,854.38674 L -133.15179,854.38674 z "
         style="fill:#02154e"
         id="path17" />
    </g>
  </g>
</svg>
