<?xml version="1.0" encoding="utf-8"?>
<!-- Generator: Adobe Illustrator 14.0.0, SVG Export Plug-In . SVG Version: 6.00 Build 43363)  -->
<!DOCTYPE svg PUBLIC "-//W3C//DTD SVG 1.1//EN" "http://www.w3.org/Graphics/SVG/1.1/DTD/svg11.dtd">
<svg version="1.1"
	 id="lacoste" xmlns:sodipodi="http://sodipodi.sourceforge.net/DTD/sodipodi-0.dtd" xmlns:rdf="http://www.w3.org/1999/02/22-rdf-syntax-ns#" xmlns:inkscape="http://www.inkscape.org/namespaces/inkscape" xmlns:dc="http://purl.org/dc/elements/1.1/" xmlns:svg="http://www.w3.org/2000/svg" xmlns:cc="http://web.resource.org/cc/" sodipodi:docbase="C:\Documents and Settings\Sigurd\Mine dokumenter\Mine bilder" inkscape:version="0.44.1" sodipodi:version="0.32" sodipodi:docname="Lacoste logo.svg"
	 xmlns="http://www.w3.org/2000/svg" xmlns:xlink="http://www.w3.org/1999/xlink" x="0px" y="0px" width="400px" height="300px"
	 viewBox="-50.301 -78.036 400 300" enable-background="new -50.301 -78.036 400 300" xml:space="preserve">
<path id="red" fill="#DB0026" d="M180.151,46.705c-5.302,0.076-7.635,4.296-10.728,4.204c-1.921-0.042-3.446-2.397-3.446-2.397
	s-1.092,1.121-0.048,2.339c0.868,1.064,3.851,3.429,8.652-0.147c2.941-2.191,5.061-1.146,10.229,4.229
	c5.157,5.388,8.42,4.507,8.42,4.507c1.135-0.149,1.801-1.146,2.646-0.958c0.826,0.195,0.962,2.156,1.893,2.374
	c0.928,0.209,1.612-1.571,2.595-1.337c0.983,0.236,0.931,2.155,1.87,2.376c1.094,0.254,1.569-1.583,2.619-1.329
	c0.912,0.22,1.028,2.189,1.88,2.381c1.026,0.239,1.515-1.594,2.593-1.331c0.977,0.225,0.909,2.158,1.871,2.374
	c1.058,0.243,1.611-1.578,2.612-1.34c0.439,0.117,0.332,0.259,0.801,0.649c0.464,0.384,2.284,1.244,2.934,0.374
	c0.42-0.68-0.759-1.204-1.234-1.44c-0.489-0.23-19.137-5.392-20.863-6.143c-2.166-0.938-3.889-3.716-3.472-4.858
	c0.02-0.052,0.047-0.083,0.074-0.115c-0.361-0.632-0.657-1.346-0.979-2.037c-0.189-0.007-0.393-0.02-0.617-0.042
	C188.617,48.849,186.866,46.463,180.151,46.705z"/>
<path id="croco" fill="#004526" d="M225.576,62.419c-0.609-0.793-1.591-1.11-2.27-1.416c-0.664-0.313-0.568-0.961-1.123-1.149
	c-0.568-0.183-1.562,0.977-2.335,0.735c-0.771-0.253-0.714-1.694-1.358-1.907c-0.66-0.208-1.807,0.873-2.406,0.681
	c-0.604-0.175-0.722-1.69-1.304-1.882c-0.576-0.176-1.801,0.901-2.396,0.717c-0.6-0.202-0.639-1.677-1.305-1.896
	c-0.663-0.203-1.827,0.898-2.405,0.699c-0.598-0.185-0.656-1.655-1.292-1.869c-0.643-0.205-1.82,0.876-2.412,0.682
	c-0.611-0.197-0.777-1.709-1.334-1.892c-0.568-0.174-1.678,0.718-2.579,0.667c-5.981-0.558-8.43-4.167-9.008-3.473
	c-0.027,0.032-0.055,0.063-0.074,0.115c-0.417,1.142,1.306,3.92,3.472,4.858c1.727,0.751,20.374,5.913,20.863,6.143
	c0.476,0.236,1.654,0.76,1.234,1.44c-0.649,0.871-2.47,0.01-2.934-0.374c-0.469-0.391-0.361-0.532-0.801-0.649
	c-1.001-0.238-1.555,1.583-2.612,1.34c-0.962-0.216-0.895-2.149-1.871-2.374c-1.078-0.263-1.566,1.57-2.593,1.331
	c-0.852-0.191-0.968-2.161-1.88-2.381c-1.05-0.254-1.525,1.583-2.619,1.329c-0.939-0.221-0.887-2.141-1.87-2.376
	c-0.982-0.233-1.667,1.547-2.595,1.337c-0.931-0.217-1.066-2.178-1.893-2.374c-0.846-0.188-1.512,0.809-2.646,0.958
	c0,0-3.263,0.881-8.42-4.507c-5.168-5.375-7.287-6.421-10.229-4.229c-4.802,3.576-7.784,1.212-8.652,0.147
	c-1.044-1.218,0.048-2.339,0.048-2.339s1.525,2.354,3.446,2.397c3.093,0.092,5.426-4.128,10.728-4.204
	c6.715-0.242,8.466,2.144,10.302,2.333c0.225,0.022,0.428,0.035,0.617,0.042c1.242,0.044,1.807-0.24,2.827-0.832h-0.007
	c0.952-0.34,1.78,1.501,2.777,1.129c1.055-0.397,0.283-2.252,1.419-2.679c1.062-0.379,1.755,1.483,2.771,1.104
	c1.068-0.39,0.388-2.295,1.413-2.667c1.058-0.381,1.674,1.501,2.771,1.1c1.101-0.392,0.39-2.278,1.392-2.658
	c1.034-0.378,1.782,1.475,2.798,1.114c0.962-0.344,0.412-2.317,1.414-2.677c1.039-0.372,1.712,1.486,2.819,1.079
	c0.911-0.318,0.407-2.292,1.352-2.65c0.943-0.353,1.821,1.478,2.804,1.111c0.921-0.34,0.382-2.303,1.362-2.671
	c1.038-0.373,1.839,1.457,2.82,1.112c0.971-0.348,0.233-1.932,1.501-2.562c0,0,1.753-0.576,1.643-1.862
	c-0.014-0.217-0.377-2.968-3.265-3.551c-2.776-0.559-24.71,5.508-24.993,5.159c-2.02-3.988-4.606-2.88-5-2.792
	c-0.401,0.102-2.851,1.144-5.563,0.102c-5.326-2.41-9.577,3.72-12.495,2.914c-2.687-0.755-4.74-0.319-5.867,0.064
	c-1.031,0.356-2.702,1.699-6.246,0.481c-27.385-9.351-48.787-1.177-48.787-1.177c-12.068,4.032-13.612,0-13.612,0
	s-3.971-5.395,23.991-11.829C163.3,15.71,164.511,0.433,164.036-0.534c-0.66-1.401-0.912,0.25-2.235,1.769
	c-1.11,1.262-2.401,0.638-2.401,0.638c-1.265-0.607-2.073,0.838-2.073,0.838s-1.627,2.524-3.065,1.088
	c-1.383-1.381-3.219,1.737-3.904,1.862c-0.821,0.145-1.222-0.256-2.324-0.762c-1.65-0.729-3.423,2.278-4.329,2.491
	c-1.391,0.317-2.365-1.637-3.56-0.813c-3.571,2.466-4.133,2.81-5.095,1.85c-0.711-0.726-0.815-1.513-3.201,0.771
	c-2.03,1.946-3.003,2.311-3.817,1.073c-0.839-1.246-0.624-2.947-4.112,0.4c-1.665,1.6-2.518,1.631-3.471,0.912
	c-0.719-0.541-0.714-3.115-3.216-0.783c-2.268,2.098-3.915,3.018-4.557,1.154c-0.709-2.094-3.383,0.386-4,0.969
	c-0.642,0.583-2.015,2.128-2.978,0.534c-0.963-1.603-3.268,0.789-4.639,2.308c-1.057,1.179-1.913,0.269-3.028-0.479
	c-1.268-0.87-5.064,4.43-5.409,4.747c-0.348,0.301-0.611,0-1.482-0.738c-1.336-1.133-4.942,5.164-5.525,5.574
	c0,0-0.246,0.543-1.23-0.396c-1.398-1.33-8.825,8.445-11.627,19.505c-3.585,14.179,2.126,25.052,2.126,25.052
	s1.716,0.052,2.447-1.107l1.113-2.507c0.9-2.089,2.378-1.432,2.378-1.432l-3.501,10.424c-0.553,1.373-0.219,3.314,1.004,5.151
	c1.154,1.845,1.948,3.092,2.873,3.949c2.842,2.677,2.552-0.489,2.625-0.885c0.333-1.694,2.21-0.393,3.684,0.419
	c2.674,1.501,2.376-1.813,2.963-2.895c0.408-0.773,1.722-0.809,3.149,0.387c1.111,0.93,2.216-2.217,2.216-2.217
	c1.386-6.703-1.871-7.478-3.632-7.576l-3.566-0.164c0,0,0.234-1.02,0.605-1.975l0.16-0.677c3.889-9.69-2.609-11.56-4.554-11.406
	c-2.145,0.191-1.995-1.175-1.995-1.175s11.747-2.313,9.557,10.144c0,0-0.433,2.168-0.693,3.3l3.228,0.376
	c2.778,0.347,3.271,3.634,3.271,3.634s10.216,2.699,16.011,1.62c0,0,2.59-0.618,3.309-2.229c0,0,3.753-8.841,14.708-9.215
	c0,0,0.386,1.145-1.364,1.74c-2.099,0.708-9.092,1.263-10.545,9.295v0.032c-0.158,1.318,0.195,4.125,3.055,5.425
	c2.436,1.099,3.294,5.535,3.799,6.732c1.418,3.4,3.542,0.15,3.542,0.15s1.345-2.744,2.501-1.223c1.951,2.567,2.857,1.274,3.3-0.36
	c0.485-1.765,1.192-2.534,3.234-0.39c0.873,0.932,2.586,0.213,2.756-1.381c0.361-3.51,2.732-0.72,3.072-0.584
	c0.405,0.153,2.887-0.403,1.498-4.361c0,0-1.876-3.771-10.335-5.398c-1.985-0.376-1.67-1.813-1.67-1.813l1.863,0.262
	c0.557,0.09,5.476,0.636,5.999,0.719c20.636,2.037,36.293-4.963,36.764-5.462c16.03,3.071,37.826,2.024,41.918,0.55
	C225.742,65.462,226.049,63.06,225.576,62.419z M192.477,36.84c0.336-0.54,0.652-0.846,0.943-0.993
	c1.244-0.707,2.038,1.507,1.887,1.588c-0.007,0.004-0.035,0.013-0.048,0.018c-0.002,0.003-0.002,0.012-0.004,0.015
	c-0.196,0.094-2.596,0.775-2.832,0.619C191.949,37.758,192.477,36.84,192.477,36.84z M183.364,37.54c0,0,0.31-0.391,0.909-0.589
	c0.592-0.215,1.486-0.252,2.67,0.511c1.361,0.867,1.327,1.542,1.327,1.542c-0.044,0.022-0.104,0.044-0.173,0.068
	c-0.987,0.381-5.038,0.879-5.038,0.879C182.272,38.5,183.364,37.54,183.364,37.54z M107.815,17.94
	c0.681,0.524,0.028,3.545-0.457,3.101l-3.499-1.851C103.86,19.19,107.118,17.43,107.815,17.94z M102.126,19.868
	c0.688,0.513,0.044,3.541-0.445,3.091l-3.487-1.854C98.196,21.105,101.435,19.344,102.126,19.868z M100.158,25.776
	c0.692,0.517,0.043,3.55-0.45,3.111l-3.494-1.877C96.215,27.01,99.464,25.263,100.158,25.776z M96.829,33.707l-3.498-1.858
	c0,0,3.254-1.762,3.944-1.244C97.973,31.122,97.306,34.153,96.829,33.707z M96.17,39.69l-3.487-1.858c0,0,3.246-1.754,3.938-1.247
	C97.312,37.096,96.668,40.115,96.17,39.69z M96.107,21.974c0.693,0.516,0.039,3.531-0.449,3.102l-3.5-1.864
	C92.159,23.211,95.417,21.452,96.107,21.974z M93.073,26.579c0.685,0.514,0.036,3.53-0.447,3.102l-3.493-1.858
	C89.132,27.823,92.381,26.056,93.073,26.579z M86.838,33.805c0,0,3.259-1.77,3.942-1.245c0.695,0.512,0.04,3.533-0.448,3.096
	L86.838,33.805z M89.515,41.372l-3.486-1.865c0,0,3.252-1.749,3.938-1.233C90.661,38.787,90.011,41.806,89.515,41.372z
	 M87.029,28.677c0.688,0.503,0.038,3.53-0.451,3.094l-3.481-1.865C83.097,29.906,86.331,28.157,87.029,28.677z M83.886,34.77
	c0.692,0.513,0.043,3.552-0.456,3.104l-3.485-1.855C79.947,36.019,83.197,34.273,83.886,34.77z M79.295,41.988
	c0,0,3.25-1.747,3.939-1.232c0.697,0.51,0.034,3.539-0.446,3.101L79.295,41.988z M85.526,48.816l-3.489-1.861
	c0,0,3.252-1.761,3.943-1.245C86.671,46.229,86.011,49.248,85.526,48.816z M90.532,52.871l-3.491-1.853c0,0,3.255-1.761,3.945-1.25
	C91.671,50.276,91.01,53.318,90.532,52.871z M92.097,46.54l-3.492-1.867c0,0,3.253-1.747,3.943-1.247
	C93.239,43.945,92.585,46.966,92.097,46.54z M96.74,55.602l-3.484-1.856c0,0,3.234-1.758,3.932-1.242
	C97.877,53.022,97.237,56.029,96.74,55.602z M98.417,49.771l-3.488-1.856c0,0,3.246-1.748,3.935-1.232
	C99.554,47.191,98.911,50.217,98.417,49.771z M99.572,44.26l-3.488-1.861c0,0,3.247-1.747,3.944-1.234
	C100.719,41.685,100.059,44.695,99.572,44.26z M104.48,54.898l-3.489-1.869c0,0,3.247-1.744,3.944-1.238
	C105.634,52.306,104.972,55.34,104.48,54.898z M105.991,49.093l-3.487-1.854c0,0,3.252-1.766,3.944-1.244
	C107.128,46.494,106.473,49.527,105.991,49.093z M107.256,42.942l-3.489-1.858c0,0,3.25-1.743,3.946-1.237
	C108.399,40.363,107.744,43.38,107.256,42.942z M112.158,53.81l-3.5-1.858c0,0,3.253-1.76,3.95-1.247
	C113.294,51.232,112.633,54.256,112.158,53.81z M113.33,47.599l-3.488-1.867c0,0,3.254-1.753,3.942-1.244
	C114.475,45.01,113.82,48.019,113.33,47.599z M114.547,41.223l-3.489-1.861c0,0,3.247-1.75,3.942-1.241
	C115.688,38.649,115.036,41.661,114.547,41.223z M119.799,51.355l-3.493-1.843c0,0,3.253-1.758,3.935-1.247
	C120.941,48.779,120.287,51.795,119.799,51.355z M120.754,45.237l-3.498-1.849c0,0,3.251-1.756,3.937-1.249
	C121.901,42.657,121.237,45.692,120.754,45.237z M121.966,39.241l-3.5-1.847c0,0,3.258-1.767,3.944-1.257
	C123.099,36.658,122.447,39.69,121.966,39.241z M127.311,50.062l-3.491-1.861c0,0,3.244-1.759,3.942-1.245
	C128.46,47.476,127.801,50.491,127.311,50.062z M128.264,44.35l-3.494-1.853c0,0,3.257-1.771,3.942-1.244
	C129.402,41.754,128.749,44.792,128.264,44.35z M129.414,38.258l-3.497-1.855c0,0,3.253-1.774,3.95-1.246
	C130.556,35.674,129.911,38.689,129.414,38.258z M134.251,50.169l-3.483-1.857c0,0,3.247-1.766,3.937-1.238
	C135.397,47.581,134.741,50.603,134.251,50.169z M135.404,44.037l-3.499-1.854c0,0,3.258-1.769,3.95-1.244
	C136.539,41.458,135.885,44.473,135.404,44.037z M136.711,37.932l-3.494-1.854c0,0,3.254-1.769,3.946-1.242
	C137.86,35.347,137.199,38.374,136.711,37.932z M141.527,50.169l-3.494-1.867c0,0,3.248-1.755,3.939-1.228
	C142.662,47.581,142.019,50.603,141.527,50.169z M142.644,44.376l-3.485-1.863c0,0,3.244-1.741,3.935-1.244
	C143.787,41.789,143.135,44.819,142.644,44.376z M143.966,38.449l-3.482-1.856c0,0,3.247-1.752,3.941-1.246
	C145.106,35.862,144.454,38.886,143.966,38.449z M148.365,51.043l-3.493-1.876c0,0,3.254-1.741,3.944-1.222
	C149.513,48.448,148.861,51.476,148.365,51.043z M149.6,45.427l-3.491-1.852c0,0,3.256-1.756,3.942-1.242
	C150.749,42.857,150.075,45.872,149.6,45.427z M150.933,39.69l-3.5-1.85c0,0,3.256-1.758,3.951-1.256
	C152.072,37.096,151.409,40.115,150.933,39.69z M156.376,46.639l-3.487-1.839c0,0,3.247-1.763,3.944-1.257
	C157.518,44.062,156.865,47.083,156.376,46.639z"/>
<path id="a" d="M64.629,99.548c-0.728-1.936-2.113-2.77-4.651-2.808c-0.231-0.007-11.968,0.011-11.968,0.011l-17.372,47.303
	c0,0,8.45,0,8.456,0c0.729,0.052,1.407-0.063,2.016-0.337c1.646-0.75,2.452-2.657,2.687-3.308c0,0.017,2.363-6.59,2.526-7.023
	c1.209,0,16.547-0.006,17.478-0.006c0.364,1.115,3.55,10.651,3.55,10.651h11.444l-7.259-23.021L64.629,99.548z M49.328,123.674
	c1.271-3.478,4.433-12.275,5.783-15.838c1.167,3.593,5.963,15.72,5.993,15.836C59.369,123.672,50.011,123.674,49.328,123.674z"/>
<path id="o" d="M146.982,96.372h-0.006c-13.537,0.019-23.357,10.181-23.357,24.152c0,13.689,10.037,24.017,23.363,24.017
	c13.321,0,23.766-10.542,23.766-24.017C170.748,106.979,160.303,96.372,146.982,96.372z M147.322,133.989
	c-6.9,0-12.309-5.968-12.309-13.592c0-7.555,5.291-13.245,12.301-13.245c6.958,0,12.004,5.566,12.004,13.245
	C159.318,128.151,154.158,133.989,147.322,133.989z"/>
<path id="s" d="M201.374,116.281l-0.445-0.13c0.013,0.006-4.401-1.336-4.412-1.349l-0.66-0.234
	c-3.605-1.303-6.166-2.395-6.166-4.494c0-0.053,0-0.105,0-0.155c0.358-3.482,6.827-3.521,6.89-3.521
	c3.566,0,6.308,0.546,9.781,1.941l0.074,0.027l0.149,0.043c0.802,0.162,1.504,0.185,2.072,0.06l0.962-0.364
	c1.38-0.76,2.753-4.781,3.279-6.475l0.171-0.543l-0.425-0.39c-0.167-0.16-1.179-0.993-4.858-2.367c-3.742-1.4-9.043-1.62-9.043-1.62
	l-2.614-0.012c-13.657,0-18.871,8.429-19.037,14.089c-0.112,5.64,3.098,8.541,7.95,11.178c2.029,1.125,5.737,2.159,8.426,2.911
	c-0.014-0.012,2.782,0.815,2.782,0.815c5.088,1.599,7.031,3.373,6.67,6.126c-0.161,0.91-1.881,2.416-5.787,2.416
	c-2.972,0-5.657-0.455-8.453-1.432c-1.343-0.533-2.731-1.223-4.199-2.094l-0.07-0.044l-0.149-0.065
	c-0.813-0.302-1.539-0.429-2.164-0.376l-1.074,0.231c-1.568,0.587-3.749,4.567-4.62,6.25l-0.344,0.665l0.594,0.47
	c0.105,0.071,2.531,2,4.592,3.207c2.428,1.345,5.152,2.318,8.37,2.969c1.298,0.237,3.356,0.537,6.585,0.537
	c10.582,0,18.271-5.361,19.154-13.345C215.738,123.965,211.294,119.24,201.374,116.281z"/>
<path id="t" d="M219.922,98.075c-0.61,0.562-0.931,1.311-0.931,2.156l-0.007,7.484c0,0,12.768-0.011,14.439-0.011
	c0,1.761,0,36.366,0,36.366l11.827-0.01c0,0,0-34.6,0-36.356c1.578-0.002,9.294-0.002,9.294-0.002c0.437,0,2.741-0.05,4.073-1.271
	c0.604-0.574,0.932-1.307,0.932-2.164v-7.46h-35.553C223.558,96.802,221.249,96.848,219.922,98.075z"/>
<path id="l" d="M21.113,133.366c0,0-9.931,0-13.278,0c0-1.744-0.037-32.242-0.037-32.242c0-1.339-0.399-2.402-1.206-3.145
	c-1.286-1.207-3.201-1.201-3.916-1.187l-6.977-0.015l0.018,47.275h29.599l0.023-7.513C25.339,135.578,24.927,133.366,21.113,133.366
	z"/>
<path id="c" d="M117.512,134.027v-0.007l-0.94-0.413c-0.939-0.256-2.043-0.173-3.284,0.242c-2.265,0.609-4.679,0.807-7.578,0.616
	c-7.419-0.727-11.875-5.775-12.211-13.847c0.335-7.992,4.792-13.04,12.246-13.76c2.869-0.191,5.283,0,7.561,0.623
	c1.223,0.408,2.327,0.489,3.262,0.225c0.003-0.002,0.944-0.418,0.944-0.418c1.324-0.816,2.272-4.973,2.72-7.367l0.102-0.562
	l-0.481-0.347c-0.122-0.088-0.498-0.351-4.785-1.508c-3.904-1.052-7.378-1.182-9.091-1.17l-0.189,0.002
	c-9.796,0-24.548,6.467-24.971,24.271v0.102c0.423,17.811,15.175,24.275,24.978,24.275l0.182,0.007
	c1.713,0.007,5.181-0.134,9.091-1.184c4.288-1.147,4.663-1.413,4.789-1.503l0.479-0.339l-0.102-0.564
	C119.785,138.994,118.837,134.849,117.512,134.027z"/>
<path id="e" d="M299.488,133.351l-20.844,0.009c0,0,0.036-6.799,0.036-7.925c1.71,0,17.205,0,17.205,0l-0.028-10.938
	c0,0-15.445,0.018-17.147,0.018c-0.004-1.293,0-5.497,0-6.799c1.704,0,15.795-0.019,15.795-0.019
	c0.434,0.007,2.792,0.009,4.069-1.265c0.893-0.895,0.933-2.522,0.933-3.37v-6.245h-32.789l0.007,47.252l27.868-0.038
	c1.827-0.04,4.931-1.116,4.931-4.749L299.488,133.351z"/>
</svg>
